<svg version="1.2" xmlns="http://www.w3.org/2000/svg" viewBox="0 0 24 24" width="24" height="24">
	<title>bag-svg</title>
	<style>
		.s0 { fill: #ffffff } 
	</style>
	<path id="Layer" fill-rule="evenodd" class="s0" d="m16.5 6.2h0.2c2.8 0 5 2.3 5 5v5.5c0 2.8-2.2 5.1-5 5.1h-9.4c-2.8 0-5-2.3-5-5.1v-5.5c0-2.7 2.2-5 5-5h0.2c0-2.5 2-4.5 4.5-4.5 2.4 0 4.4 2 4.5 4.4zm-7.5 1.5v1.5c0 0.5-0.4 0.8-0.8 0.8-0.4 0-0.7-0.3-0.7-0.7v-0.1-1.5h-0.2c-2 0-3.6 1.5-3.6 3.5v5.5c0 1.9 1.6 3.5 3.6 3.5h9.4c2 0 3.5-1.6 3.5-3.5v-5.5c0-2-1.5-3.5-3.5-3.5h-0.2v1.5c0 0.5-0.3 0.8-0.7 0.8-0.4 0-0.7-0.3-0.8-0.7v-0.1-1.5zm6.1-1.5c0-1.7-1.4-3-3-3-1.7 0-3 1.2-3.1 2.8v0.2z"/>
</svg>